<?xml version="1.0" encoding="utf-8"?>
<!-- Generator: Adobe Illustrator 24.0.1, SVG Export Plug-In . SVG Version: 6.00 Build 0)  -->
<svg version="1.1" id="Capa_1" xmlns="http://www.w3.org/2000/svg" xmlns:xlink="http://www.w3.org/1999/xlink" x="0px" y="0px"
	 viewBox="0 0 204 164" style="enable-background:new 0 0 204 164;" xml:space="preserve">
<g>
	<path d="M194,42H10c-4.4,0-8-3.6-8-8V10c0-4.4,3.6-8,8-8h184c4.4,0,8,3.6,8,8v24C202,38.4,198.4,42,194,42z"/>
</g>
<g>
	<path d="M194,102H10c-4.4,0-8-3.6-8-8V70c0-4.4,3.6-8,8-8h184c4.4,0,8,3.6,8,8v24C202,98.4,198.4,102,194,102z"/>
</g>
<g>
	<path d="M194,162H50c-4.4,0-8-3.6-8-8v-24c0-4.4,3.6-8,8-8h144c4.4,0,8,3.6,8,8v24C202,158.4,198.4,162,194,162z"/>
</g>
</svg>
