<?xml version="1.0" encoding="utf-8"?>
<!-- Generator: Adobe Illustrator 24.0.1, SVG Export Plug-In . SVG Version: 6.00 Build 0)  -->
<svg version="1.1" id="Capa_1" xmlns="http://www.w3.org/2000/svg" xmlns:xlink="http://www.w3.org/1999/xlink" x="0px" y="0px"
	 viewBox="0 0 300 300" style="enable-background:new 0 0 300 300;" xml:space="preserve">
<style type="text/css">
	.st0{fill:#FF93CD;}
	.st1{fill:none;stroke:#FF93CD;stroke-width:20;stroke-linecap:round;stroke-linejoin:round;stroke-miterlimit:10;}
</style>
<g>
	<path class="st0" d="M264,27c6.6,0,12,5.4,12,12v224c0,6.6-5.4,12-12,12H40c-6.6,0-12-5.4-12-12V39c0-6.6,5.4-12,12-12H264 M264,7
		H40C22.3,7,8,21.3,8,39v224c0,17.7,14.3,32,32,32h224c17.7,0,32-14.3,32-32V39C296,21.3,281.7,7,264,7L264,7z"/>
</g>
<g>
	<line class="st1" x1="223" y1="80" x2="81" y2="222"/>
</g>
<g>
	<line class="st1" x1="81" y1="80" x2="223" y2="222"/>
</g>
</svg>
