<?xml version="1.0" encoding="utf-8"?>
<!-- Generator: Adobe Illustrator 24.0.1, SVG Export Plug-In . SVG Version: 6.00 Build 0)  -->
<svg version="1.1" id="Capa_1" xmlns="http://www.w3.org/2000/svg" xmlns:xlink="http://www.w3.org/1999/xlink" x="0px" y="0px"
	 viewBox="0 0 204 164" style="enable-background:new 0 0 204 164;" xml:space="preserve">
<style type="text/css">
	.st0{fill:#5FB7FF;}
</style>
<g>
	<path class="st0" d="M186,38H18C9.2,38,2,30.8,2,22v0C2,13.2,9.2,6,18,6h168c8.8,0,16,7.2,16,16v0C202,30.8,194.8,38,186,38z"/>
</g>
<g>
	<path class="st0" d="M186,98H18C9.2,98,2,90.8,2,82v0c0-8.8,7.2-16,16-16h168c8.8,0,16,7.2,16,16v0C202,90.8,194.8,98,186,98z"/>
</g>
<g>
	<path class="st0" d="M186,158H58c-8.8,0-16-7.2-16-16v0c0-8.8,7.2-16,16-16h128c8.8,0,16,7.2,16,16v0C202,150.8,194.8,158,186,158z
		"/>
</g>
</svg>
